<?xml version="1.0" encoding="UTF-8"?>
<svg xmlns="http://www.w3.org/2000/svg" viewBox="0 0 40 80"
     data-io-shape="reactor-trayed" data-io-version="3.0">
  <g class="io-shape-body" fill="none" stroke="#808080" stroke-width="1.5">
    <path d="M 10,12 A 10,5 0 0,1 30,12"/>
    <line x1="10" y1="12" x2="10" y2="68"/>
    <line x1="30" y1="12" x2="30" y2="68"/>
    <line x1="10" y1="68" x2="30" y2="68"/>
    <line x1="10" y1="17" x2="30" y2="17" stroke-width="0.75"/>
    <line x1="10" y1="22" x2="30" y2="22" stroke-width="0.75"/>
    <line x1="10" y1="27" x2="30" y2="27" stroke-width="0.75"/>
    <line x1="10" y1="32" x2="30" y2="32" stroke-width="0.75"/>
    <line x1="10" y1="37" x2="30" y2="37" stroke-width="0.75"/>
    <line x1="10" y1="42" x2="30" y2="42" stroke-width="0.75"/>
    <line x1="10" y1="47" x2="30" y2="47" stroke-width="0.75"/>
    <line x1="10" y1="52" x2="30" y2="52" stroke-width="0.75"/>
    <line x1="10" y1="57" x2="30" y2="57" stroke-width="0.75"/>
    <line x1="10" y1="63" x2="30" y2="63" stroke-width="0.75"/>
  </g>
</svg>
