<svg xmlns="http://www.w3.org/2000/svg"
     data-io-shape="column-distillation-standard-packed"
     data-io-version="2"
     data-io-category="columns"
     viewBox="0 0 44 120">
  <g class="io-shape-body">
    <!-- Domed top (apex at y=5) -->
    <path d="M10,10 A12,5 0 0,1 34,10" fill="none" stroke="#808080" stroke-width="1.5"/>
    <!-- Left wall -->
    <line x1="10" y1="10" x2="10" y2="110" stroke="#808080" stroke-width="1.5"/>
    <!-- Right wall -->
    <line x1="34" y1="10" x2="34" y2="110" stroke="#808080" stroke-width="1.5"/>
    <!-- Domed bottom (apex at y=115) -->
    <path d="M10,110 A12,5 0 0,0 34,110" fill="none" stroke="#808080" stroke-width="1.5"/>
    <!-- Section 1: y=22 to y=52 -->
    <line x1="10" y1="22" x2="34" y2="22" stroke="#808080" stroke-width="0.75"/>
    <line x1="10" y1="52" x2="34" y2="52" stroke="#808080" stroke-width="0.75"/>
    <line x1="10" y1="22" x2="34" y2="52" stroke="#808080" stroke-width="0.75"/>
    <line x1="34" y1="22" x2="10" y2="52" stroke="#808080" stroke-width="0.75"/>
    <!-- Section 2: y=62 to y=100 -->
    <line x1="10" y1="62" x2="34" y2="62" stroke="#808080" stroke-width="0.75"/>
    <line x1="10" y1="100" x2="34" y2="100" stroke="#808080" stroke-width="0.75"/>
    <line x1="10" y1="62" x2="34" y2="100" stroke="#808080" stroke-width="0.75"/>
    <line x1="34" y1="62" x2="10" y2="100" stroke="#808080" stroke-width="0.75"/>
  </g>
  <g class="io-connections" display="none">
    <circle r="2" fill="none" stroke="#4A9EFF" stroke-width="1" data-io-conn-id="nozzle-top" cx="22" cy="3"/>
    <circle r="2" fill="none" stroke="#4A9EFF" stroke-width="1" data-io-conn-id="nozzle-left" cx="8" cy="60"/>
    <circle r="2" fill="none" stroke="#4A9EFF" stroke-width="1" data-io-conn-id="nozzle-right" cx="36" cy="60"/>
    <circle r="2" fill="none" stroke="#4A9EFF" stroke-width="1" data-io-conn-id="nozzle-bottom" cx="22" cy="117"/>
  </g>
  <g class="io-shape-part-support"></g>
</svg>
