<svg xmlns="http://www.w3.org/2000/svg"
     data-io-shape="column-distillation-standard-trayed-10"
     data-io-version="2"
     data-io-category="columns"
     viewBox="0 0 44 120">
  <g class="io-shape-body">
    <!-- Domed top (apex at y=5) -->
    <path d="M10,10 A12,5 0 0,1 34,10" fill="none" stroke="#808080" stroke-width="1.5"/>
    <!-- Left wall -->
    <line x1="10" y1="10" x2="10" y2="110" stroke="#808080" stroke-width="1.5"/>
    <!-- Right wall -->
    <line x1="34" y1="10" x2="34" y2="110" stroke="#808080" stroke-width="1.5"/>
    <!-- Domed bottom (apex at y=115) -->
    <path d="M10,110 A12,5 0 0,0 34,110" fill="none" stroke="#808080" stroke-width="1.5"/>
    <!-- Tray lines (10 trays) -->
    <line x1="10" y1="19" x2="34" y2="19" stroke="#808080" stroke-width="0.75"/>
    <line x1="10" y1="28" x2="34" y2="28" stroke="#808080" stroke-width="0.75"/>
    <line x1="10" y1="38" x2="34" y2="38" stroke="#808080" stroke-width="0.75"/>
    <line x1="10" y1="48" x2="34" y2="48" stroke="#808080" stroke-width="0.75"/>
    <line x1="10" y1="57" x2="34" y2="57" stroke="#808080" stroke-width="0.75"/>
    <line x1="10" y1="66" x2="34" y2="66" stroke="#808080" stroke-width="0.75"/>
    <line x1="10" y1="75" x2="34" y2="75" stroke="#808080" stroke-width="0.75"/>
    <line x1="10" y1="84" x2="34" y2="84" stroke="#808080" stroke-width="0.75"/>
    <line x1="10" y1="93" x2="34" y2="93" stroke="#808080" stroke-width="0.75"/>
    <line x1="10" y1="102" x2="34" y2="102" stroke="#808080" stroke-width="0.75"/>
  </g>
  <g class="io-connections" display="none">
    <circle r="2" fill="none" stroke="#4A9EFF" stroke-width="1" data-io-conn-id="nozzle-top" cx="22" cy="3"/>
    <circle r="2" fill="none" stroke="#4A9EFF" stroke-width="1" data-io-conn-id="nozzle-left" cx="8" cy="60"/>
    <circle r="2" fill="none" stroke="#4A9EFF" stroke-width="1" data-io-conn-id="nozzle-right" cx="36" cy="60"/>
    <circle r="2" fill="none" stroke="#4A9EFF" stroke-width="1" data-io-conn-id="nozzle-bottom" cx="22" cy="117"/>
  </g>
  <g class="io-shape-part-support"></g>
</svg>
