<svg xmlns="http://www.w3.org/2000/svg" viewBox="0 0 44 120" data-io-shape="column-distillation-packed" data-io-version="1.0" data-io-category="columns">
  <g class="io-shape-body">
    <path class="io-stateful" d="M10,10 A12,5 0 0,1 34,10" fill="none" stroke="#808080" stroke-width="1.5"/>
    <line class="io-stateful" x1="10" y1="10" x2="10" y2="110" stroke="#808080" stroke-width="1.5"/>
    <line class="io-stateful" x1="34" y1="10" x2="34" y2="110" stroke="#808080" stroke-width="1.5"/>
    <path class="io-stateful" d="M10,110 A12,5 0 0,0 34,110" fill="none" stroke="#808080" stroke-width="1.5"/>
    <line class="io-stateful" x1="10" y1="22" x2="34" y2="22" stroke="#808080" stroke-width="0.75"/>
    <line class="io-stateful" x1="10" y1="52" x2="34" y2="52" stroke="#808080" stroke-width="0.75"/>
    <line class="io-stateful" x1="10" y1="22" x2="34" y2="52" stroke="#808080" stroke-width="0.75"/>
    <line class="io-stateful" x1="34" y1="22" x2="10" y2="52" stroke="#808080" stroke-width="0.75"/>
    <line class="io-stateful" x1="10" y1="62" x2="34" y2="62" stroke="#808080" stroke-width="0.75"/>
    <line class="io-stateful" x1="10" y1="100" x2="34" y2="100" stroke="#808080" stroke-width="0.75"/>
    <line class="io-stateful" x1="10" y1="62" x2="34" y2="100" stroke="#808080" stroke-width="0.75"/>
    <line class="io-stateful" x1="34" y1="62" x2="10" y2="100" stroke="#808080" stroke-width="0.75"/>
  </g>
  <g class="io-connections" display="none">
    <circle data-conn-id="feed" data-conn-type="process" data-conn-dir="left" cx="10" cy="60" r="3"/>
    <circle data-conn-id="overhead-vapor" data-conn-type="process" data-conn-dir="top" cx="22" cy="10" r="3"/>
    <circle data-conn-id="bottoms" data-conn-type="process" data-conn-dir="bottom" cx="22" cy="110" r="3"/>
    <circle data-conn-id="reflux" data-conn-type="process" data-conn-dir="right" cx="34" cy="30" r="3"/>
    <circle data-conn-id="side-draw" data-conn-type="process" data-conn-dir="right" cx="34" cy="80" r="3"/>
  </g>
</svg>
