<?xml version="1.0" encoding="UTF-8"?>
<svg xmlns="http://www.w3.org/2000/svg" viewBox="0 0 44 120"
     data-io-shape="column-distillation-trayed-10" data-io-version="3.0">
  <g class="io-shape-body" fill="none" stroke="#808080" stroke-width="1.5">
    <path d="M 10,8 A 12,6 0 0,1 34,8"/>
    <line x1="10" y1="8" x2="10" y2="112"/>
    <line x1="34" y1="8" x2="34" y2="112"/>
    <path d="M 10,112 A 12,6 0 0,0 34,112"/>
    <line x1="10" y1="18" x2="34" y2="18" stroke-width="0.75"/>
    <line x1="10" y1="28" x2="34" y2="28" stroke-width="0.75"/>
    <line x1="10" y1="38" x2="34" y2="38" stroke-width="0.75"/>
    <line x1="10" y1="48" x2="34" y2="48" stroke-width="0.75"/>
    <line x1="10" y1="58" x2="34" y2="58" stroke-width="0.75"/>
    <line x1="10" y1="68" x2="34" y2="68" stroke-width="0.75"/>
    <line x1="10" y1="78" x2="34" y2="78" stroke-width="0.75"/>
    <line x1="10" y1="88" x2="34" y2="88" stroke-width="0.75"/>
    <line x1="10" y1="98" x2="34" y2="98" stroke-width="0.75"/>
    <line x1="10" y1="108" x2="34" y2="108" stroke-width="0.75"/>
  </g>
</svg>
