<svg xmlns="http://www.w3.org/2000/svg" viewBox="0 0 40 80" data-io-shape="reactor-trayed" data-io-version="1.0" data-io-category="reactors">
  <g class="io-shape-body">
    <path class="io-stateful" d="M10,12 A10,5 0 0,1 30,12" fill="none" stroke="#808080" stroke-width="1.5"/>
    <line class="io-stateful" x1="10" y1="12" x2="10" y2="68" stroke="#808080" stroke-width="1.5"/>
    <line class="io-stateful" x1="30" y1="12" x2="30" y2="68" stroke="#808080" stroke-width="1.5"/>
    <line class="io-stateful" x1="10" y1="68" x2="30" y2="68" stroke="#808080" stroke-width="1.5"/>
    <line class="io-stateful" x1="10" y1="17" x2="30" y2="17" stroke="#808080" stroke-width="0.75"/>
    <line class="io-stateful" x1="10" y1="22" x2="30" y2="22" stroke="#808080" stroke-width="0.75"/>
    <line class="io-stateful" x1="10" y1="27" x2="30" y2="27" stroke="#808080" stroke-width="0.75"/>
    <line class="io-stateful" x1="10" y1="32" x2="30" y2="32" stroke="#808080" stroke-width="0.75"/>
    <line class="io-stateful" x1="10" y1="37" x2="30" y2="37" stroke="#808080" stroke-width="0.75"/>
    <line class="io-stateful" x1="10" y1="42" x2="30" y2="42" stroke="#808080" stroke-width="0.75"/>
    <line class="io-stateful" x1="10" y1="47" x2="30" y2="47" stroke="#808080" stroke-width="0.75"/>
    <line class="io-stateful" x1="10" y1="52" x2="30" y2="52" stroke="#808080" stroke-width="0.75"/>
    <line class="io-stateful" x1="10" y1="57" x2="30" y2="57" stroke="#808080" stroke-width="0.75"/>
    <line class="io-stateful" x1="10" y1="63" x2="30" y2="63" stroke="#808080" stroke-width="0.75"/>
  </g>
  <g class="io-connections" display="none">
    <circle data-conn-id="inlet" data-conn-type="process" data-conn-dir="left" cx="10" cy="30" r="3"/>
    <circle data-conn-id="outlet" data-conn-type="process" data-conn-dir="left" cx="10" cy="60" r="3"/>
    <circle data-conn-id="top-nozzle" data-conn-type="process" data-conn-dir="top" cx="20" cy="12" r="3"/>
    <circle data-conn-id="bottom-drain" data-conn-type="process" data-conn-dir="bottom" cx="20" cy="68" r="3"/>
  </g>
</svg>
