<svg xmlns="http://www.w3.org/2000/svg" viewBox="-8 0 76 38" data-io-shape="air-cooler">
  <g class="io-shape-body">
    <line x1="5" y1="5" x2="55" y2="5" stroke="#808080" stroke-width="0.75"/>
    <line x1="5" y1="5" x2="5" y2="27" stroke="#808080" stroke-width="0.75"/>
    <line x1="55" y1="5" x2="55" y2="27" stroke="#808080" stroke-width="0.75"/>
    <polyline points="-4,11 5,11 9,14 14,8 19,14 24,8 29,14 34,8 39,14 44,8 49,14 52,11 55,11 63,11" fill="none" stroke="#808080" stroke-width="0.75"/>
    <polyline points="59,8 63,11 59,14" fill="none" stroke="#808080" stroke-width="0.75"/>
    <path d="M30,22 C30,21 8,18 8,22 C8,26 30,23 30,22 Z" fill="none" stroke="#808080" stroke-width="0.75"/>
    <path d="M30,22 C30,21 52,18 52,22 C52,26 30,23 30,22 Z" fill="none" stroke="#808080" stroke-width="0.75"/>
    <line x1="30" y1="22" x2="30" y2="30" stroke="#808080" stroke-width="0.75"/>
  </g>
  <g class="io-connections" display="none">
    <circle data-conn-id="inlet" data-conn-type="process" data-conn-dir="left" cx="-4" cy="11" r="3"/>
    <circle data-conn-id="outlet" data-conn-type="process" data-conn-dir="right" cx="63" cy="11" r="3"/>
  </g>
</svg>
